<mxfile host="app.diagrams.net" agent="Mozilla/5.0 (Windows NT 10.0; Win64; x64) AppleWebKit/537.36 (KHTML, like Gecko) Chrome/126.0.0.0 Safari/537.36" version="24.7.6">
  <diagram name="第 1 页" id="lfJFgyUHGgr_xkrEM4PF">
    <mxGraphModel dx="1912" dy="1121" grid="0" gridSize="10" guides="1" tooltips="1" connect="1" arrows="1" fold="1" page="0" pageScale="1" pageWidth="827" pageHeight="1169" math="0" shadow="0">
      <root>
        <mxCell id="0" />
        <mxCell id="1" parent="0" />
        <mxCell id="Aizblv3qcIen2mevFITz-2" value="&lt;font style=&quot;font-size: 20px;&quot;&gt;农艺&lt;/font&gt;" style="swimlane;whiteSpace=wrap;html=1;" vertex="1" parent="1">
          <mxGeometry x="100" y="350" width="148" height="849" as="geometry">
            <mxRectangle x="100" y="350" width="80" height="40" as="alternateBounds" />
          </mxGeometry>
        </mxCell>
        <mxCell id="Aizblv3qcIen2mevFITz-5" value="&lt;div&gt;&lt;span style=&quot;font-size: 15px; background-color: initial;&quot;&gt;农场信息&lt;/span&gt;&lt;br&gt;&lt;/div&gt;&lt;div style=&quot;font-size: 15px;&quot;&gt;&lt;font style=&quot;font-size: 15px;&quot;&gt;农场坐标&lt;/font&gt;&lt;/div&gt;&lt;div style=&quot;font-size: 15px;&quot;&gt;&lt;font style=&quot;font-size: 15px;&quot;&gt;(定时任务)&lt;/font&gt;&lt;/div&gt;" style="rounded=1;whiteSpace=wrap;html=1;" vertex="1" parent="Aizblv3qcIen2mevFITz-2">
          <mxGeometry x="14" y="39" width="120" height="149" as="geometry" />
        </mxCell>
        <mxCell id="Aizblv3qcIen2mevFITz-15" style="edgeStyle=orthogonalEdgeStyle;rounded=0;orthogonalLoop=1;jettySize=auto;html=1;exitX=0.5;exitY=1;exitDx=0;exitDy=0;entryX=0.5;entryY=0;entryDx=0;entryDy=0;" edge="1" parent="Aizblv3qcIen2mevFITz-2" source="Aizblv3qcIen2mevFITz-11" target="Aizblv3qcIen2mevFITz-14">
          <mxGeometry relative="1" as="geometry" />
        </mxCell>
        <mxCell id="Aizblv3qcIen2mevFITz-11" value="&lt;span style=&quot;font-size: 14px;&quot;&gt;确认NVDI生成&lt;/span&gt;" style="rounded=1;whiteSpace=wrap;html=1;" vertex="1" parent="Aizblv3qcIen2mevFITz-2">
          <mxGeometry x="14" y="218" width="120" height="60" as="geometry" />
        </mxCell>
        <mxCell id="Aizblv3qcIen2mevFITz-21" style="edgeStyle=orthogonalEdgeStyle;rounded=0;orthogonalLoop=1;jettySize=auto;html=1;exitX=0.5;exitY=1;exitDx=0;exitDy=0;" edge="1" parent="Aizblv3qcIen2mevFITz-2" source="Aizblv3qcIen2mevFITz-14" target="Aizblv3qcIen2mevFITz-20">
          <mxGeometry relative="1" as="geometry" />
        </mxCell>
        <mxCell id="Aizblv3qcIen2mevFITz-14" value="&lt;span style=&quot;font-size: 14px;&quot;&gt;调用长势算法&lt;/span&gt;" style="rounded=1;whiteSpace=wrap;html=1;" vertex="1" parent="Aizblv3qcIen2mevFITz-2">
          <mxGeometry x="14" y="308" width="120" height="60" as="geometry" />
        </mxCell>
        <mxCell id="Aizblv3qcIen2mevFITz-53" style="edgeStyle=orthogonalEdgeStyle;rounded=0;orthogonalLoop=1;jettySize=auto;html=1;exitX=0.5;exitY=1;exitDx=0;exitDy=0;entryX=0.5;entryY=0;entryDx=0;entryDy=0;" edge="1" parent="Aizblv3qcIen2mevFITz-2" source="Aizblv3qcIen2mevFITz-20" target="Aizblv3qcIen2mevFITz-52">
          <mxGeometry relative="1" as="geometry" />
        </mxCell>
        <mxCell id="Aizblv3qcIen2mevFITz-20" value="&lt;span style=&quot;font-size: 14px;&quot;&gt;生成长势任务&lt;/span&gt;&lt;div&gt;&lt;span style=&quot;font-size: 14px;&quot;&gt;填入任务的信息&lt;/span&gt;&lt;/div&gt;&lt;div&gt;&lt;span style=&quot;font-size: 14px;&quot;&gt;等待回调...&lt;/span&gt;&lt;/div&gt;" style="rounded=1;whiteSpace=wrap;html=1;" vertex="1" parent="Aizblv3qcIen2mevFITz-2">
          <mxGeometry x="14" y="398" width="120" height="60" as="geometry" />
        </mxCell>
        <mxCell id="Aizblv3qcIen2mevFITz-22" value="异步地" style="text;html=1;align=center;verticalAlign=middle;whiteSpace=wrap;rounded=0;fontSize=9;" vertex="1" parent="Aizblv3qcIen2mevFITz-2">
          <mxGeometry x="67" y="373" width="60" height="20" as="geometry" />
        </mxCell>
        <mxCell id="Aizblv3qcIen2mevFITz-9" style="edgeStyle=orthogonalEdgeStyle;rounded=0;orthogonalLoop=1;jettySize=auto;html=1;exitX=0.5;exitY=1;exitDx=0;exitDy=0;entryX=0.5;entryY=0;entryDx=0;entryDy=0;" edge="1" parent="Aizblv3qcIen2mevFITz-2" source="Aizblv3qcIen2mevFITz-6" target="Aizblv3qcIen2mevFITz-8">
          <mxGeometry relative="1" as="geometry" />
        </mxCell>
        <mxCell id="Aizblv3qcIen2mevFITz-6" value="&lt;span style=&quot;font-size: 14px;&quot;&gt;植被影像生成&lt;/span&gt;" style="rounded=1;whiteSpace=wrap;html=1;" vertex="1" parent="Aizblv3qcIen2mevFITz-2">
          <mxGeometry x="204" y="128" width="120" height="60" as="geometry" />
        </mxCell>
        <mxCell id="Aizblv3qcIen2mevFITz-87" style="edgeStyle=orthogonalEdgeStyle;rounded=0;orthogonalLoop=1;jettySize=auto;html=1;exitX=0;exitY=0.75;exitDx=0;exitDy=0;entryX=1;entryY=0.75;entryDx=0;entryDy=0;" edge="1" parent="Aizblv3qcIen2mevFITz-2" source="Aizblv3qcIen2mevFITz-8" target="Aizblv3qcIen2mevFITz-11">
          <mxGeometry relative="1" as="geometry" />
        </mxCell>
        <mxCell id="Aizblv3qcIen2mevFITz-8" value="&lt;span style=&quot;font-size: 14px;&quot;&gt;生成的结果同步到文件存储(MinIO)&lt;/span&gt;" style="rounded=1;whiteSpace=wrap;html=1;" vertex="1" parent="Aizblv3qcIen2mevFITz-2">
          <mxGeometry x="204" y="218" width="120" height="60" as="geometry" />
        </mxCell>
        <mxCell id="Aizblv3qcIen2mevFITz-17" value="&lt;div&gt;&lt;span style=&quot;font-size: 14px; background-color: initial;&quot;&gt;执行长势算法&lt;/span&gt;&lt;br&gt;&lt;/div&gt;" style="rounded=1;whiteSpace=wrap;html=1;fontStyle=1" vertex="1" parent="Aizblv3qcIen2mevFITz-2">
          <mxGeometry x="204" y="308" width="120" height="60" as="geometry" />
        </mxCell>
        <mxCell id="Aizblv3qcIen2mevFITz-18" style="edgeStyle=orthogonalEdgeStyle;rounded=0;orthogonalLoop=1;jettySize=auto;html=1;exitX=1;exitY=0.5;exitDx=0;exitDy=0;entryX=0;entryY=0.5;entryDx=0;entryDy=0;" edge="1" parent="Aizblv3qcIen2mevFITz-2" source="Aizblv3qcIen2mevFITz-14" target="Aizblv3qcIen2mevFITz-17">
          <mxGeometry relative="1" as="geometry" />
        </mxCell>
        <mxCell id="Aizblv3qcIen2mevFITz-27" style="edgeStyle=orthogonalEdgeStyle;rounded=0;orthogonalLoop=1;jettySize=auto;html=1;exitX=1;exitY=0.75;exitDx=0;exitDy=0;entryX=0.008;entryY=0.388;entryDx=0;entryDy=0;entryPerimeter=0;" edge="1" parent="Aizblv3qcIen2mevFITz-2" source="Aizblv3qcIen2mevFITz-5" target="Aizblv3qcIen2mevFITz-6">
          <mxGeometry relative="1" as="geometry" />
        </mxCell>
        <mxCell id="Aizblv3qcIen2mevFITz-57" style="edgeStyle=orthogonalEdgeStyle;rounded=0;orthogonalLoop=1;jettySize=auto;html=1;exitX=0.5;exitY=1;exitDx=0;exitDy=0;entryX=0.5;entryY=0;entryDx=0;entryDy=0;" edge="1" parent="Aizblv3qcIen2mevFITz-2" source="Aizblv3qcIen2mevFITz-52" target="Aizblv3qcIen2mevFITz-56">
          <mxGeometry relative="1" as="geometry" />
        </mxCell>
        <mxCell id="Aizblv3qcIen2mevFITz-52" value="&lt;span style=&quot;font-size: 14px;&quot;&gt;确认完成&lt;/span&gt;&lt;div&gt;&lt;span style=&quot;font-size: 13px;&quot;&gt;将任务关联到MinIO中的长势影像&lt;/span&gt;&lt;/div&gt;" style="rounded=1;whiteSpace=wrap;html=1;" vertex="1" parent="Aizblv3qcIen2mevFITz-2">
          <mxGeometry x="14" y="680" width="120" height="60" as="geometry" />
        </mxCell>
        <mxCell id="Aizblv3qcIen2mevFITz-55" value="界面显示任务提交成功&lt;div&gt;需要等待&lt;/div&gt;" style="text;html=1;align=center;verticalAlign=middle;whiteSpace=wrap;rounded=0;fontSize=9;" vertex="1" parent="Aizblv3qcIen2mevFITz-2">
          <mxGeometry x="72" y="564" width="60" height="20" as="geometry" />
        </mxCell>
        <mxCell id="Aizblv3qcIen2mevFITz-56" value="&lt;span style=&quot;font-size: 14px;&quot;&gt;任务状态&lt;/span&gt;&lt;div&gt;&lt;span style=&quot;font-size: 14px;&quot;&gt;显示成功&lt;/span&gt;&lt;/div&gt;" style="rounded=1;whiteSpace=wrap;html=1;" vertex="1" parent="Aizblv3qcIen2mevFITz-2">
          <mxGeometry x="14" y="769" width="120" height="60" as="geometry" />
        </mxCell>
        <mxCell id="Aizblv3qcIen2mevFITz-3" value="&lt;font style=&quot;font-size: 20px;&quot;&gt;研究院&lt;/font&gt;" style="swimlane;whiteSpace=wrap;html=1;" vertex="1" parent="1">
          <mxGeometry x="290" y="350" width="150" height="849" as="geometry" />
        </mxCell>
        <mxCell id="Aizblv3qcIen2mevFITz-34" value="读取农场矢量信息" style="text;html=1;align=center;verticalAlign=middle;whiteSpace=wrap;rounded=0;fontSize=9;" vertex="1" parent="Aizblv3qcIen2mevFITz-3">
          <mxGeometry x="37" y="53" width="82" height="20" as="geometry" />
        </mxCell>
        <mxCell id="Aizblv3qcIen2mevFITz-82" style="edgeStyle=orthogonalEdgeStyle;rounded=0;orthogonalLoop=1;jettySize=auto;html=1;exitX=0.5;exitY=1;exitDx=0;exitDy=0;" edge="1" parent="Aizblv3qcIen2mevFITz-3" source="Aizblv3qcIen2mevFITz-38" target="Aizblv3qcIen2mevFITz-42">
          <mxGeometry relative="1" as="geometry" />
        </mxCell>
        <mxCell id="Aizblv3qcIen2mevFITz-38" value="&lt;span style=&quot;font-size: 14px;&quot;&gt;生成长势影像&lt;/span&gt;" style="rounded=1;whiteSpace=wrap;html=1;" vertex="1" parent="Aizblv3qcIen2mevFITz-3">
          <mxGeometry x="15" y="398" width="120" height="60" as="geometry" />
        </mxCell>
        <mxCell id="Aizblv3qcIen2mevFITz-42" value="&lt;span style=&quot;font-size: 14px;&quot;&gt;调用GIS渲染&lt;/span&gt;" style="rounded=1;whiteSpace=wrap;html=1;" vertex="1" parent="Aizblv3qcIen2mevFITz-3">
          <mxGeometry x="15" y="578" width="120" height="60" as="geometry" />
        </mxCell>
        <mxCell id="Aizblv3qcIen2mevFITz-83" value="" style="endArrow=classic;html=1;rounded=0;" edge="1" parent="Aizblv3qcIen2mevFITz-3">
          <mxGeometry width="50" height="50" relative="1" as="geometry">
            <mxPoint x="75" y="511" as="sourcePoint" />
            <mxPoint x="-115" y="511" as="targetPoint" />
          </mxGeometry>
        </mxCell>
        <mxCell id="Aizblv3qcIen2mevFITz-84" value="同步到MinIO" style="text;html=1;align=center;verticalAlign=middle;whiteSpace=wrap;rounded=0;fontSize=9;" vertex="1" parent="Aizblv3qcIen2mevFITz-3">
          <mxGeometry x="-3" y="490" width="82" height="20" as="geometry" />
        </mxCell>
        <mxCell id="Aizblv3qcIen2mevFITz-85" value="返回结果json" style="text;html=1;align=center;verticalAlign=middle;whiteSpace=wrap;rounded=0;fontSize=9;" vertex="1" parent="Aizblv3qcIen2mevFITz-3">
          <mxGeometry x="48" y="689" width="82" height="20" as="geometry" />
        </mxCell>
        <mxCell id="Aizblv3qcIen2mevFITz-4" value="&lt;font style=&quot;font-size: 20px;&quot;&gt;GIS&lt;/font&gt;" style="swimlane;whiteSpace=wrap;html=1;" vertex="1" parent="1">
          <mxGeometry x="480" y="350" width="150" height="849" as="geometry" />
        </mxCell>
        <mxCell id="Aizblv3qcIen2mevFITz-33" style="edgeStyle=orthogonalEdgeStyle;rounded=0;orthogonalLoop=1;jettySize=auto;html=1;exitX=0;exitY=0.75;exitDx=0;exitDy=0;" edge="1" parent="Aizblv3qcIen2mevFITz-4" source="Aizblv3qcIen2mevFITz-30">
          <mxGeometry relative="1" as="geometry">
            <mxPoint x="-245.28571428571422" y="95.28571428571433" as="targetPoint" />
          </mxGeometry>
        </mxCell>
        <mxCell id="Aizblv3qcIen2mevFITz-30" value="&lt;span style=&quot;font-size: 14px;&quot;&gt;位置信息模块&lt;/span&gt;" style="rounded=1;whiteSpace=wrap;html=1;" vertex="1" parent="Aizblv3qcIen2mevFITz-4">
          <mxGeometry x="15" y="50" width="120" height="60" as="geometry" />
        </mxCell>
        <mxCell id="Aizblv3qcIen2mevFITz-36" value="读取农场矢量信息" style="text;html=1;align=center;verticalAlign=middle;whiteSpace=wrap;rounded=0;fontSize=9;" vertex="1" parent="Aizblv3qcIen2mevFITz-4">
          <mxGeometry x="-40" y="315" width="82" height="20" as="geometry" />
        </mxCell>
        <mxCell id="Aizblv3qcIen2mevFITz-51" style="edgeStyle=orthogonalEdgeStyle;rounded=0;orthogonalLoop=1;jettySize=auto;html=1;exitX=0.5;exitY=1;exitDx=0;exitDy=0;entryX=0.5;entryY=0;entryDx=0;entryDy=0;" edge="1" parent="Aizblv3qcIen2mevFITz-4" source="Aizblv3qcIen2mevFITz-44" target="Aizblv3qcIen2mevFITz-50">
          <mxGeometry relative="1" as="geometry" />
        </mxCell>
        <mxCell id="Aizblv3qcIen2mevFITz-44" value="&lt;span style=&quot;font-size: 14px;&quot;&gt;遥感着色渲染&lt;/span&gt;" style="rounded=1;whiteSpace=wrap;html=1;fontStyle=1" vertex="1" parent="Aizblv3qcIen2mevFITz-4">
          <mxGeometry x="15" y="578" width="120" height="60" as="geometry" />
        </mxCell>
        <mxCell id="Aizblv3qcIen2mevFITz-50" value="&lt;font style=&quot;font-size: 12px;&quot;&gt;渲染后的&lt;/font&gt;&lt;div style=&quot;&quot;&gt;&lt;font style=&quot;font-size: 12px;&quot;&gt;长势影像发布到MinIO&lt;/font&gt;&lt;/div&gt;&lt;div style=&quot;&quot;&gt;&lt;font color=&quot;#f50a0a&quot; style=&quot;font-size: 12px;&quot;&gt;(不确定是否是MinIO)&lt;/font&gt;&lt;/div&gt;" style="rounded=1;whiteSpace=wrap;html=1;" vertex="1" parent="Aizblv3qcIen2mevFITz-4">
          <mxGeometry x="15" y="680" width="120" height="60" as="geometry" />
        </mxCell>
        <mxCell id="Aizblv3qcIen2mevFITz-16" value="自动化长势旧方案" style="text;html=1;align=center;verticalAlign=middle;whiteSpace=wrap;rounded=0;fontStyle=1;fontSize=26;" vertex="1" parent="1">
          <mxGeometry x="270.25" y="149" width="232.5" height="30" as="geometry" />
        </mxCell>
        <mxCell id="Aizblv3qcIen2mevFITz-31" style="edgeStyle=orthogonalEdgeStyle;rounded=0;orthogonalLoop=1;jettySize=auto;html=1;exitX=1;exitY=0.25;exitDx=0;exitDy=0;entryX=0.002;entryY=0.44;entryDx=0;entryDy=0;entryPerimeter=0;" edge="1" parent="1" source="Aizblv3qcIen2mevFITz-5" target="Aizblv3qcIen2mevFITz-30">
          <mxGeometry relative="1" as="geometry" />
        </mxCell>
        <mxCell id="Aizblv3qcIen2mevFITz-35" style="edgeStyle=orthogonalEdgeStyle;rounded=0;orthogonalLoop=1;jettySize=auto;html=1;exitX=1;exitY=0.5;exitDx=0;exitDy=0;entryX=0.25;entryY=1;entryDx=0;entryDy=0;" edge="1" parent="1" source="Aizblv3qcIen2mevFITz-17" target="Aizblv3qcIen2mevFITz-30">
          <mxGeometry relative="1" as="geometry" />
        </mxCell>
        <mxCell id="Aizblv3qcIen2mevFITz-37" style="edgeStyle=orthogonalEdgeStyle;rounded=0;orthogonalLoop=1;jettySize=auto;html=1;exitX=0.334;exitY=1.011;exitDx=0;exitDy=0;entryX=0.995;entryY=0.62;entryDx=0;entryDy=0;exitPerimeter=0;entryPerimeter=0;" edge="1" parent="1" source="Aizblv3qcIen2mevFITz-30" target="Aizblv3qcIen2mevFITz-17">
          <mxGeometry relative="1" as="geometry" />
        </mxCell>
        <mxCell id="Aizblv3qcIen2mevFITz-39" style="edgeStyle=orthogonalEdgeStyle;rounded=0;orthogonalLoop=1;jettySize=auto;html=1;exitX=0.5;exitY=1;exitDx=0;exitDy=0;entryX=0.5;entryY=0;entryDx=0;entryDy=0;" edge="1" parent="1" source="Aizblv3qcIen2mevFITz-17" target="Aizblv3qcIen2mevFITz-38">
          <mxGeometry relative="1" as="geometry" />
        </mxCell>
        <mxCell id="Aizblv3qcIen2mevFITz-49" style="edgeStyle=orthogonalEdgeStyle;rounded=0;orthogonalLoop=1;jettySize=auto;html=1;exitX=1;exitY=0.5;exitDx=0;exitDy=0;entryX=0;entryY=0.5;entryDx=0;entryDy=0;" edge="1" parent="1" source="Aizblv3qcIen2mevFITz-42" target="Aizblv3qcIen2mevFITz-44">
          <mxGeometry relative="1" as="geometry" />
        </mxCell>
        <mxCell id="Aizblv3qcIen2mevFITz-54" style="edgeStyle=orthogonalEdgeStyle;rounded=0;orthogonalLoop=1;jettySize=auto;html=1;exitX=0;exitY=0.5;exitDx=0;exitDy=0;entryX=1;entryY=0.5;entryDx=0;entryDy=0;" edge="1" parent="1" source="Aizblv3qcIen2mevFITz-50" target="Aizblv3qcIen2mevFITz-52">
          <mxGeometry relative="1" as="geometry" />
        </mxCell>
        <mxCell id="Aizblv3qcIen2mevFITz-58" value="&lt;font style=&quot;font-size: 19px;&quot;&gt;疑问:&lt;/font&gt;&lt;div style=&quot;font-size: 19px;&quot;&gt;&lt;font style=&quot;font-size: 19px;&quot;&gt;1.NVDI影像的生成似乎是依托无人机和遥感的影像，&lt;/font&gt;&lt;/div&gt;&lt;div style=&quot;font-size: 19px;&quot;&gt;&lt;font style=&quot;font-size: 19px;&quot;&gt;&amp;nbsp; &amp;nbsp;向GIS请求位置矢量做何用意&lt;/font&gt;&lt;/div&gt;&lt;div style=&quot;font-size: 19px;&quot;&gt;&lt;font style=&quot;font-size: 19px;&quot;&gt;&amp;nbsp; &amp;nbsp;若是用来标记地块，详情中似乎没有地块位置的信息&lt;/font&gt;&lt;/div&gt;&lt;div style=&quot;font-size: 19px;&quot;&gt;&lt;font style=&quot;font-size: 19px;&quot;&gt;2.为何执行长势算法时还要多请求一次&lt;/font&gt;&lt;/div&gt;&lt;div style=&quot;font-size: 19px;&quot;&gt;&lt;font style=&quot;font-size: 19px;&quot;&gt;3.GIS渲染后的图像是否推送到文件存储？&lt;/font&gt;&lt;/div&gt;&lt;div style=&quot;font-size: 19px;&quot;&gt;&lt;font style=&quot;font-size: 19px;&quot;&gt;&amp;nbsp; &amp;nbsp;推送后是否删除未渲染前的影像？&lt;/font&gt;&lt;/div&gt;&lt;div style=&quot;font-size: 19px;&quot;&gt;&lt;font style=&quot;font-size: 19px;&quot;&gt;&amp;nbsp; a.是的话，是同步还是异步删除&lt;/font&gt;&lt;/div&gt;&lt;div style=&quot;font-size: 19px;&quot;&gt;&lt;font style=&quot;font-size: 19px;&quot;&gt;&amp;nbsp; b.异步删除的话，失败了怎么办&lt;/font&gt;&lt;/div&gt;&lt;div style=&quot;font-size: 19px;&quot;&gt;&lt;font style=&quot;font-size: 19px;&quot;&gt;&amp;nbsp; c.同步的话，如何合理控制响应时间&lt;/font&gt;&lt;/div&gt;&lt;div style=&quot;font-size: 19px;&quot;&gt;&lt;font style=&quot;font-size: 19px;&quot;&gt;4.右下角【执行长势算法】这一链路过长，&lt;/font&gt;&lt;/div&gt;&lt;div style=&quot;font-size: 19px;&quot;&gt;&lt;font style=&quot;font-size: 19px;&quot;&gt;&amp;nbsp; &amp;nbsp;其中历经的失败和异常对农艺不可知，建议MinIO推送还是&lt;/font&gt;&lt;/div&gt;&lt;div style=&quot;font-size: 19px;&quot;&gt;&amp;nbsp; &amp;nbsp;交给【研究院】和【GIS】服务，&lt;/div&gt;&lt;div style=&quot;font-size: 19px;&quot;&gt;&amp;nbsp; &amp;nbsp;但是何时启用遥感渲染，仍交给【农艺】调度&lt;/div&gt;&lt;div style=&quot;font-size: 19px;&quot;&gt;&amp;nbsp; a.图中历经两次较大的文件存储网络IO，是否可以优化，&lt;/div&gt;&lt;div style=&quot;font-size: 19px;&quot;&gt;&amp;nbsp; &amp;nbsp; 以达到仅有web端上传和下载两次IO的效果？&lt;/div&gt;&lt;div style=&quot;font-size: 19px;&quot;&gt;&amp;nbsp; &amp;nbsp; &amp;nbsp; &amp;nbsp;(部署在一处断不可行，是否能寻求减少传输量的方法?)&lt;/div&gt;" style="text;html=1;align=left;verticalAlign=middle;resizable=0;points=[];autosize=1;strokeColor=none;fillColor=none;" vertex="1" parent="1">
          <mxGeometry x="652" y="394" width="522" height="400" as="geometry" />
        </mxCell>
        <mxCell id="Aizblv3qcIen2mevFITz-59" value="&lt;b&gt;&lt;font style=&quot;font-size: 16px;&quot;&gt;代码中寻找答案&lt;/font&gt;&lt;/b&gt;" style="text;html=1;align=center;verticalAlign=middle;resizable=0;points=[];autosize=1;strokeColor=none;fillColor=none;" vertex="1" parent="1">
          <mxGeometry x="724" y="851" width="130" height="31" as="geometry" />
        </mxCell>
        <mxCell id="Aizblv3qcIen2mevFITz-61" value="" style="rounded=1;whiteSpace=wrap;html=1;" vertex="1" parent="1">
          <mxGeometry x="100" y="1601" width="153" height="741" as="geometry" />
        </mxCell>
        <mxCell id="Aizblv3qcIen2mevFITz-62" value="自动化施肥方案" style="text;html=1;align=center;verticalAlign=middle;whiteSpace=wrap;rounded=0;fontStyle=1;fontSize=26;" vertex="1" parent="1">
          <mxGeometry x="270.25" y="1528" width="232.5" height="30" as="geometry" />
        </mxCell>
        <mxCell id="Aizblv3qcIen2mevFITz-63" value="" style="rounded=1;whiteSpace=wrap;html=1;" vertex="1" parent="1">
          <mxGeometry x="310" y="1601" width="153" height="742" as="geometry" />
        </mxCell>
        <mxCell id="Aizblv3qcIen2mevFITz-64" value="" style="rounded=1;whiteSpace=wrap;html=1;arcSize=18;" vertex="1" parent="1">
          <mxGeometry x="520" y="1604" width="153" height="737" as="geometry" />
        </mxCell>
        <mxCell id="Aizblv3qcIen2mevFITz-65" value="农艺" style="text;html=1;align=center;verticalAlign=middle;whiteSpace=wrap;rounded=0;fontSize=18;fontStyle=1" vertex="1" parent="1">
          <mxGeometry x="146.5" y="1617" width="60" height="30" as="geometry" />
        </mxCell>
        <mxCell id="Aizblv3qcIen2mevFITz-66" value="研究院" style="text;html=1;align=center;verticalAlign=middle;whiteSpace=wrap;rounded=0;fontSize=18;fontStyle=1" vertex="1" parent="1">
          <mxGeometry x="356.5" y="1617" width="60" height="30" as="geometry" />
        </mxCell>
        <mxCell id="Aizblv3qcIen2mevFITz-67" value="GIS" style="text;html=1;align=center;verticalAlign=middle;whiteSpace=wrap;rounded=0;fontSize=18;fontStyle=1" vertex="1" parent="1">
          <mxGeometry x="566.5" y="1617" width="60" height="30" as="geometry" />
        </mxCell>
        <mxCell id="Aizblv3qcIen2mevFITz-68" value="&lt;span style=&quot;font-size: 19px;&quot;&gt;总结:&lt;/span&gt;&lt;div&gt;&lt;span style=&quot;font-size: 19px;&quot;&gt;1.问题同上，不知道定时任务干嘛用的&lt;/span&gt;&lt;/div&gt;&lt;div&gt;&lt;span style=&quot;font-size: 19px;&quot;&gt;2.长势影像是农艺拉下来推给研究院吗？&lt;/span&gt;&lt;/div&gt;&lt;div&gt;&lt;br&gt;&lt;/div&gt;" style="text;html=1;align=left;verticalAlign=middle;resizable=0;points=[];autosize=1;strokeColor=none;fillColor=none;" vertex="1" parent="1">
          <mxGeometry x="730" y="1634" width="357" height="95" as="geometry" />
        </mxCell>
        <mxCell id="Aizblv3qcIen2mevFITz-74" style="edgeStyle=orthogonalEdgeStyle;rounded=0;orthogonalLoop=1;jettySize=auto;html=1;exitX=1;exitY=0.5;exitDx=0;exitDy=0;entryX=0;entryY=0.5;entryDx=0;entryDy=0;" edge="1" parent="1" source="Aizblv3qcIen2mevFITz-69" target="Aizblv3qcIen2mevFITz-73">
          <mxGeometry relative="1" as="geometry" />
        </mxCell>
        <mxCell id="Aizblv3qcIen2mevFITz-102" style="edgeStyle=orthogonalEdgeStyle;rounded=0;orthogonalLoop=1;jettySize=auto;html=1;exitX=0.5;exitY=1;exitDx=0;exitDy=0;entryX=0.5;entryY=0;entryDx=0;entryDy=0;" edge="1" parent="1" source="Aizblv3qcIen2mevFITz-69" target="Aizblv3qcIen2mevFITz-101">
          <mxGeometry relative="1" as="geometry" />
        </mxCell>
        <mxCell id="Aizblv3qcIen2mevFITz-69" value="长势影像信息&lt;div&gt;地块种植信息&lt;/div&gt;" style="rounded=1;whiteSpace=wrap;html=1;" vertex="1" parent="1">
          <mxGeometry x="116.5" y="1752" width="120" height="60" as="geometry" />
        </mxCell>
        <mxCell id="Aizblv3qcIen2mevFITz-70" value="&lt;div style=&quot;font-size: 15px;&quot;&gt;文件DB&lt;/div&gt;MinIO&lt;div&gt;部署于农艺&lt;/div&gt;" style="rounded=1;whiteSpace=wrap;html=1;fontStyle=1;fontSize=15;" vertex="1" parent="1">
          <mxGeometry x="98.5" y="252" width="152.5" height="84" as="geometry" />
        </mxCell>
        <mxCell id="Aizblv3qcIen2mevFITz-72" style="edgeStyle=orthogonalEdgeStyle;rounded=0;orthogonalLoop=1;jettySize=auto;html=1;exitX=0.5;exitY=1;exitDx=0;exitDy=0;entryX=0.5;entryY=0;entryDx=0;entryDy=0;" edge="1" parent="1" source="Aizblv3qcIen2mevFITz-71" target="Aizblv3qcIen2mevFITz-69">
          <mxGeometry relative="1" as="geometry" />
        </mxCell>
        <mxCell id="Aizblv3qcIen2mevFITz-71" value="触发定时任务" style="rounded=1;whiteSpace=wrap;html=1;" vertex="1" parent="1">
          <mxGeometry x="116.5" y="1669" width="120" height="60" as="geometry" />
        </mxCell>
        <mxCell id="Aizblv3qcIen2mevFITz-76" style="edgeStyle=orthogonalEdgeStyle;rounded=0;orthogonalLoop=1;jettySize=auto;html=1;exitX=1;exitY=0.25;exitDx=0;exitDy=0;entryX=0;entryY=0.25;entryDx=0;entryDy=0;" edge="1" parent="1" source="Aizblv3qcIen2mevFITz-73" target="Aizblv3qcIen2mevFITz-75">
          <mxGeometry relative="1" as="geometry" />
        </mxCell>
        <mxCell id="Aizblv3qcIen2mevFITz-86" style="edgeStyle=orthogonalEdgeStyle;rounded=0;orthogonalLoop=1;jettySize=auto;html=1;exitX=0.5;exitY=1;exitDx=0;exitDy=0;entryX=0.5;entryY=0;entryDx=0;entryDy=0;" edge="1" parent="1" source="Aizblv3qcIen2mevFITz-73" target="Aizblv3qcIen2mevFITz-79">
          <mxGeometry relative="1" as="geometry" />
        </mxCell>
        <mxCell id="Aizblv3qcIen2mevFITz-73" value="执行施肥算法" style="rounded=1;whiteSpace=wrap;html=1;fontStyle=1" vertex="1" parent="1">
          <mxGeometry x="326.5" y="1752" width="120" height="60" as="geometry" />
        </mxCell>
        <mxCell id="Aizblv3qcIen2mevFITz-77" style="edgeStyle=orthogonalEdgeStyle;rounded=0;orthogonalLoop=1;jettySize=auto;html=1;exitX=0;exitY=0.75;exitDx=0;exitDy=0;entryX=1;entryY=0.75;entryDx=0;entryDy=0;" edge="1" parent="1" source="Aizblv3qcIen2mevFITz-75" target="Aizblv3qcIen2mevFITz-73">
          <mxGeometry relative="1" as="geometry" />
        </mxCell>
        <mxCell id="Aizblv3qcIen2mevFITz-75" value="位置信息服务" style="rounded=1;whiteSpace=wrap;html=1;fontStyle=1" vertex="1" parent="1">
          <mxGeometry x="536.5" y="1752" width="120" height="60" as="geometry" />
        </mxCell>
        <mxCell id="Aizblv3qcIen2mevFITz-78" value="查询矢量坐标" style="text;html=1;align=center;verticalAlign=middle;whiteSpace=wrap;rounded=0;" vertex="1" parent="1">
          <mxGeometry x="463" y="1734" width="60" height="30" as="geometry" />
        </mxCell>
        <mxCell id="Aizblv3qcIen2mevFITz-108" style="edgeStyle=orthogonalEdgeStyle;rounded=0;orthogonalLoop=1;jettySize=auto;html=1;exitX=0;exitY=0.25;exitDx=0;exitDy=0;" edge="1" parent="1" source="Aizblv3qcIen2mevFITz-79">
          <mxGeometry relative="1" as="geometry">
            <mxPoint x="177.07462686567158" y="1849.8955223880598" as="targetPoint" />
          </mxGeometry>
        </mxCell>
        <mxCell id="Aizblv3qcIen2mevFITz-79" value="生成施肥结果影像" style="rounded=1;whiteSpace=wrap;html=1;fontStyle=0" vertex="1" parent="1">
          <mxGeometry x="326.5" y="1835" width="120" height="60" as="geometry" />
        </mxCell>
        <mxCell id="Aizblv3qcIen2mevFITz-12" style="edgeStyle=orthogonalEdgeStyle;rounded=0;orthogonalLoop=1;jettySize=auto;html=1;exitX=0;exitY=0.5;exitDx=0;exitDy=0;entryX=1;entryY=0.5;entryDx=0;entryDy=0;" edge="1" parent="1">
          <mxGeometry relative="1" as="geometry">
            <mxPoint x="304" y="586" as="sourcePoint" />
            <mxPoint x="234" y="586" as="targetPoint" />
          </mxGeometry>
        </mxCell>
        <mxCell id="Aizblv3qcIen2mevFITz-13" value="返回结果json" style="text;html=1;align=center;verticalAlign=middle;whiteSpace=wrap;rounded=0;fontSize=6;" vertex="1" parent="1">
          <mxGeometry x="240" y="565" width="60" height="20" as="geometry" />
        </mxCell>
        <mxCell id="Aizblv3qcIen2mevFITz-88" value="同步文件" style="text;html=1;align=center;verticalAlign=middle;whiteSpace=wrap;rounded=0;fontSize=6;" vertex="1" parent="1">
          <mxGeometry x="240" y="614" width="60" height="20" as="geometry" />
        </mxCell>
        <mxCell id="Aizblv3qcIen2mevFITz-95" value="或者此处本就并非影像&lt;div&gt;而是依靠研究院json串&lt;/div&gt;&lt;div&gt;生成的前端页面&lt;/div&gt;" style="shape=callout;whiteSpace=wrap;html=1;perimeter=calloutPerimeter;position2=0.41;" vertex="1" parent="1">
          <mxGeometry x="599" y="932" width="106" height="135" as="geometry" />
        </mxCell>
        <mxCell id="Aizblv3qcIen2mevFITz-100" value="同步施肥影像" style="text;html=1;align=center;verticalAlign=middle;whiteSpace=wrap;rounded=0;" vertex="1" parent="1">
          <mxGeometry x="221" y="1822" width="93" height="30" as="geometry" />
        </mxCell>
        <mxCell id="Aizblv3qcIen2mevFITz-112" style="edgeStyle=orthogonalEdgeStyle;rounded=0;orthogonalLoop=1;jettySize=auto;html=1;exitX=0.25;exitY=1;exitDx=0;exitDy=0;entryX=0.25;entryY=0;entryDx=0;entryDy=0;" edge="1" parent="1" source="Aizblv3qcIen2mevFITz-101" target="Aizblv3qcIen2mevFITz-111">
          <mxGeometry relative="1" as="geometry" />
        </mxCell>
        <mxCell id="Aizblv3qcIen2mevFITz-101" value="确认施肥影像完成" style="rounded=1;whiteSpace=wrap;html=1;fontStyle=0" vertex="1" parent="1">
          <mxGeometry x="116.5" y="1930" width="120" height="60" as="geometry" />
        </mxCell>
        <mxCell id="Aizblv3qcIen2mevFITz-105" value="施肥结果json" style="text;html=1;align=center;verticalAlign=middle;whiteSpace=wrap;rounded=0;" vertex="1" parent="1">
          <mxGeometry x="275" y="1937" width="93" height="30" as="geometry" />
        </mxCell>
        <mxCell id="Aizblv3qcIen2mevFITz-110" style="edgeStyle=orthogonalEdgeStyle;rounded=0;orthogonalLoop=1;jettySize=auto;html=1;exitX=0.5;exitY=1;exitDx=0;exitDy=0;entryX=1.002;entryY=0.615;entryDx=0;entryDy=0;entryPerimeter=0;" edge="1" parent="1" source="Aizblv3qcIen2mevFITz-79" target="Aizblv3qcIen2mevFITz-101">
          <mxGeometry relative="1" as="geometry" />
        </mxCell>
        <mxCell id="Aizblv3qcIen2mevFITz-119" style="edgeStyle=orthogonalEdgeStyle;rounded=0;orthogonalLoop=1;jettySize=auto;html=1;exitX=1;exitY=0.25;exitDx=0;exitDy=0;entryX=0;entryY=0.25;entryDx=0;entryDy=0;" edge="1" parent="1" source="Aizblv3qcIen2mevFITz-111" target="Aizblv3qcIen2mevFITz-118">
          <mxGeometry relative="1" as="geometry" />
        </mxCell>
        <mxCell id="Aizblv3qcIen2mevFITz-124" style="edgeStyle=orthogonalEdgeStyle;rounded=0;orthogonalLoop=1;jettySize=auto;html=1;exitX=0.5;exitY=1;exitDx=0;exitDy=0;entryX=0.5;entryY=0;entryDx=0;entryDy=0;" edge="1" parent="1" source="Aizblv3qcIen2mevFITz-111" target="Aizblv3qcIen2mevFITz-123">
          <mxGeometry relative="1" as="geometry" />
        </mxCell>
        <mxCell id="Aizblv3qcIen2mevFITz-111" value="调用GIS渲染服务" style="rounded=1;whiteSpace=wrap;html=1;fontStyle=0" vertex="1" parent="1">
          <mxGeometry x="116.5" y="2185" width="120" height="60" as="geometry" />
        </mxCell>
        <mxCell id="Aizblv3qcIen2mevFITz-113" value="&lt;div&gt;状态:&lt;/div&gt;&lt;div&gt;发布成功&lt;/div&gt;" style="rounded=1;whiteSpace=wrap;html=1;fontStyle=0" vertex="1" parent="1">
          <mxGeometry x="158" y="2062" width="76" height="44" as="geometry" />
        </mxCell>
        <mxCell id="Aizblv3qcIen2mevFITz-114" style="edgeStyle=orthogonalEdgeStyle;rounded=0;orthogonalLoop=1;jettySize=auto;html=1;exitX=0.75;exitY=1;exitDx=0;exitDy=0;entryX=0.644;entryY=0.018;entryDx=0;entryDy=0;entryPerimeter=0;" edge="1" parent="1" source="Aizblv3qcIen2mevFITz-101" target="Aizblv3qcIen2mevFITz-113">
          <mxGeometry relative="1" as="geometry" />
        </mxCell>
        <mxCell id="Aizblv3qcIen2mevFITz-115" value="地块处方" style="text;html=1;align=center;verticalAlign=middle;whiteSpace=wrap;rounded=0;" vertex="1" parent="1">
          <mxGeometry x="190" y="2012" width="93" height="30" as="geometry" />
        </mxCell>
        <mxCell id="Aizblv3qcIen2mevFITz-117" value="变量处方" style="text;html=1;align=center;verticalAlign=middle;whiteSpace=wrap;rounded=0;" vertex="1" parent="1">
          <mxGeometry x="69" y="2072" width="93" height="30" as="geometry" />
        </mxCell>
        <mxCell id="Aizblv3qcIen2mevFITz-120" style="edgeStyle=orthogonalEdgeStyle;rounded=0;orthogonalLoop=1;jettySize=auto;html=1;exitX=0;exitY=0.75;exitDx=0;exitDy=0;entryX=1;entryY=0.75;entryDx=0;entryDy=0;" edge="1" parent="1" source="Aizblv3qcIen2mevFITz-118" target="Aizblv3qcIen2mevFITz-111">
          <mxGeometry relative="1" as="geometry" />
        </mxCell>
        <mxCell id="Aizblv3qcIen2mevFITz-118" value="&lt;span style=&quot;font-size: 14px;&quot;&gt;遥感着色渲染&lt;/span&gt;" style="rounded=1;whiteSpace=wrap;html=1;fontStyle=1" vertex="1" parent="1">
          <mxGeometry x="536.5" y="2185" width="120" height="60" as="geometry" />
        </mxCell>
        <mxCell id="Aizblv3qcIen2mevFITz-122" value="任务完成" style="rounded=1;whiteSpace=wrap;html=1;fontStyle=0" vertex="1" parent="1">
          <mxGeometry x="138.5" y="2289" width="76" height="44" as="geometry" />
        </mxCell>
        <mxCell id="Aizblv3qcIen2mevFITz-123" value="&lt;div&gt;状态:&lt;/div&gt;&lt;div&gt;发布成功&lt;/div&gt;" style="rounded=1;whiteSpace=wrap;html=1;fontStyle=0" vertex="1" parent="1">
          <mxGeometry x="138.5" y="2289" width="76" height="44" as="geometry" />
        </mxCell>
        <mxCell id="Aizblv3qcIen2mevFITz-125" value="自动化长势&lt;font color=&quot;#ff0000&quot;&gt;新&lt;/font&gt;方案" style="text;html=1;align=center;verticalAlign=middle;whiteSpace=wrap;rounded=0;fontStyle=1;fontSize=26;" vertex="1" parent="1">
          <mxGeometry x="1874" y="276" width="232.5" height="30" as="geometry" />
        </mxCell>
        <mxCell id="Aizblv3qcIen2mevFITz-126" value="" style="rounded=1;whiteSpace=wrap;html=1;" vertex="1" parent="1">
          <mxGeometry x="1602" y="346" width="153" height="741" as="geometry" />
        </mxCell>
        <mxCell id="Aizblv3qcIen2mevFITz-128" value="" style="rounded=1;whiteSpace=wrap;html=1;" vertex="1" parent="1">
          <mxGeometry x="1812" y="346" width="153" height="742" as="geometry" />
        </mxCell>
        <mxCell id="Aizblv3qcIen2mevFITz-129" value="" style="rounded=1;whiteSpace=wrap;html=1;arcSize=18;" vertex="1" parent="1">
          <mxGeometry x="2022" y="349" width="153" height="737" as="geometry" />
        </mxCell>
        <mxCell id="Aizblv3qcIen2mevFITz-130" value="农艺" style="text;html=1;align=center;verticalAlign=middle;whiteSpace=wrap;rounded=0;fontSize=18;fontStyle=1" vertex="1" parent="1">
          <mxGeometry x="1648.5" y="362" width="60" height="30" as="geometry" />
        </mxCell>
        <mxCell id="Aizblv3qcIen2mevFITz-131" value="研究院" style="text;html=1;align=center;verticalAlign=middle;whiteSpace=wrap;rounded=0;fontSize=18;fontStyle=1" vertex="1" parent="1">
          <mxGeometry x="1858.5" y="362" width="60" height="30" as="geometry" />
        </mxCell>
        <mxCell id="Aizblv3qcIen2mevFITz-132" value="GIS" style="text;html=1;align=center;verticalAlign=middle;whiteSpace=wrap;rounded=0;fontSize=18;fontStyle=1" vertex="1" parent="1">
          <mxGeometry x="2068.5" y="362" width="60" height="30" as="geometry" />
        </mxCell>
        <mxCell id="Aizblv3qcIen2mevFITz-163" value="" style="rounded=1;whiteSpace=wrap;html=1;arcSize=18;" vertex="1" parent="1">
          <mxGeometry x="2222" y="343" width="153" height="737" as="geometry" />
        </mxCell>
        <mxCell id="Aizblv3qcIen2mevFITz-164" value="OSS" style="text;html=1;align=center;verticalAlign=middle;whiteSpace=wrap;rounded=0;fontSize=18;fontStyle=1" vertex="1" parent="1">
          <mxGeometry x="2268.5" y="362" width="60" height="30" as="geometry" />
        </mxCell>
      </root>
    </mxGraphModel>
  </diagram>
</mxfile>
